<svg width="35" height="35" viewBox="0 0 35 35" fill="none" xmlns="http://www.w3.org/2000/svg">
<path d="M16.0854 3.77703C16.4807 3.44226 16.982 3.25854 17.5 3.25854C18.018 3.25854 18.5193 3.44226 18.9146 3.77703L29.8521 13.0564C30.0943 13.2617 30.2889 13.5173 30.4223 13.8054C30.5558 14.0935 30.625 14.4072 30.625 14.7247V28.4374C30.625 29.0176 30.3945 29.574 29.9843 29.9842C29.5741 30.3945 29.0177 30.6249 28.4375 30.6249H20.0521C19.762 30.6249 19.4838 30.5097 19.2787 30.3046C19.0736 30.0995 18.9583 29.8213 18.9583 29.5312V20.4166H16.0417V29.5312C16.0417 29.8213 15.9264 30.0995 15.7213 30.3046C15.5162 30.5097 15.238 30.6249 14.9479 30.6249H6.5625C5.98234 30.6249 5.42594 30.3945 5.0157 29.9842C4.60547 29.574 4.375 29.0176 4.375 28.4374V14.7247C4.375 14.0831 4.65792 13.472 5.14792 13.0564L16.0854 3.77703ZM17.5 5.44536L6.5625 14.7247V28.4374H13.8542V19.3229C13.8542 19.0328 13.9694 18.7546 14.1745 18.5495C14.3796 18.3443 14.6578 18.2291 14.9479 18.2291H20.0521C20.3422 18.2291 20.6204 18.3443 20.8255 18.5495C21.0306 18.7546 21.1458 19.0328 21.1458 19.3229V28.4374H28.4375V14.7247L17.5 5.44536Z" fill="#C34FCD"/>
</svg>
